<svg xmlns="http://www.w3.org/2000/svg" xmlns:xlink="http://www.w3.org/1999/xlink" viewBox="0 0 1080 1080"><defs><style>.cls-1{fill:url(#radial-gradient);}.cls-2{fill:#4895ef;}</style><radialGradient id="radial-gradient" cx="540" cy="540" r="1040.4" gradientUnits="userSpaceOnUse"><stop offset="0" stop-color="#fff"/><stop offset="1" stop-color="#c7cdd3"/></radialGradient></defs><g id="TypeMark"><rect class="cls-1" width="1080" height="1080"/><polygon class="cls-2" points="1005.41 485.29 1005.41 441.35 923.1 441.35 879.19 485.25 879.19 638.65 1005.41 638.65 1005.41 594.71 934.05 594.71 934.05 559.17 997.02 559.17 997.02 517.47 934.05 517.47 934.05 485.29 1005.41 485.29"/><path class="cls-2" d="M539.72,441.35H505.37l-43.73,43.73V638.65h78.08c63,0,103-41.7,103-98.79C642.71,481.93,602.69,441.35,539.72,441.35Zm-4.2,148.88h-19V488.92h19c31.63,0,51.5,18.2,51.5,50.94C587,572.32,567.15,590.23,535.52,590.23Z"/><path class="cls-2" d="M789.86,526.15l-37.72,37.72v1.74h55.13c-8.12,17.07-22.11,26-41.14,26-32.46,0-49.82-18.2-49.82-52.06,0-30.23,16.8-49.54,44.5-49.54,15.12,0,26.31,5.88,32.47,16.24h59.05c-7.84-41.15-42-66.89-91.8-66.89-60.45,0-99.91,41.42-99.91,100.19,0,59,39.74,100.47,100.19,100.47,51.5,0,82-31.9,93.76-60.73V526.15Z"/><path class="cls-2" d="M200.53,537.34c19.31-5.32,33.3-21,33.3-44.78,0-32.74-24.63-51.21-64.65-51.21H118.83L74.59,485.59V638.65h97.67c42.26,0,66.05-20.43,66.05-53.73C238.31,562.53,224,542.66,200.53,537.34ZM129.44,485h27.71c13.43,0,20.71,5.87,20.71,17.63,0,11.47-7.28,17.07-20.71,17.07H129.44Zm31.9,109.42h-31.9V558.61h31.62c13.44,0,21,6.44,21,18.47C182.06,588.84,175.06,594.43,161.34,594.43Z"/><path class="cls-2" d="M376.56,496.21v59.6c0,20.43-9.8,33.31-30.5,33.31s-29.95-12.88-29.95-33.31V441.35h0l-54.54,54.54v59.92c0,56.26,35.82,84.8,83.4,84.8,47.29,0,86.48-28.54,86.48-84.8V441.36Z"/></g></svg>